<svg width="118" height="39" viewBox="0 0 118 39" fill="none" xmlns="http://www.w3.org/2000/svg">
<g clip-path="url(#clip0_1773_60)">
<path d="M15.2095 1.5235e-05C6.94779 1.5235e-05 0 6.72932 0 14.9911C0 23.2528 6.94779 29.9821 15.2095 29.9821C19.6669 29.9821 23.0315 28.5195 25.6649 25.7772C28.3724 23.0697 29.2127 19.2697 29.2127 16.1966C29.2127 15.2825 29.1427 14.4382 29.0078 13.7243H15.2044V17.8204L24.9942 17.8162C24.6938 20.0753 23.9322 21.7296 22.7744 22.8874C21.3466 24.3152 19.1177 25.886 15.2044 25.886C9.17136 25.886 4.45319 21.0241 4.45319 14.9911C4.45319 8.95797 9.17136 4.09612 15.2044 4.09612C18.4604 4.09612 20.8374 5.37532 22.5916 7.02071L25.4821 4.13098C23.0358 1.79349 19.7801 0 15.2095 0V1.5235e-05ZM93.6479 1.10099V29.3946H97.7832V1.10099H93.6479ZM108.67 10.6731C103.694 10.6731 99.5634 14.5861 99.5634 20.3276C99.5634 25.7426 103.659 29.9821 109.144 29.9821C113.567 29.9821 116.126 27.2746 117.188 25.7032L113.897 23.5098C112.8 25.1203 111.303 26.1819 109.144 26.1819C106.989 26.1819 105.453 25.1943 104.465 23.2573L117.371 17.9114L116.932 16.8147C116.131 14.66 113.68 10.6731 108.67 10.6731ZM40.5429 10.6773C35.2063 10.6773 30.8578 14.7341 30.8578 20.3318C30.8578 25.8905 35.2063 29.9864 40.5429 29.9864C45.8795 29.9864 50.2281 25.8905 50.2281 20.3318C50.2281 14.7341 45.8795 10.6773 40.5429 10.6773ZM61.4367 10.6773C56.1001 10.6773 51.7516 14.7384 51.7516 20.3318C51.7516 25.8905 56.1001 29.9864 61.4367 29.9864C66.7733 29.9864 71.1218 25.8905 71.1218 20.3318C71.1218 14.7341 66.7733 10.6773 61.4367 10.6773ZM81.8867 10.6773C77.0594 10.6773 72.6368 14.9169 72.6368 20.3667C72.6368 25.7773 77.0594 29.9821 81.8867 29.9821C84.1937 29.9821 86.0218 28.9596 86.9707 27.7887H87.1186V29.177C87.1186 32.8726 85.1469 34.8358 81.9649 34.8358C79.3706 34.8358 77.7601 32.9818 77.1028 31.4104L73.4113 32.9467C74.4734 35.5062 77.2898 38.636 81.9692 38.636C86.9401 38.636 91.145 35.7238 91.145 28.5938V11.2648H87.1186V12.8367H86.9707C86.0174 11.7006 84.1894 10.6773 81.8867 10.6773V10.6773ZM108.813 14.4079C110.493 14.4079 111.921 15.2476 112.396 16.4534L103.768 20.036C103.66 16.3099 106.659 14.4079 108.813 14.4079ZM40.5429 14.4818C43.468 14.4818 45.9883 16.8582 45.9883 20.3318C45.9883 23.7662 43.468 26.1819 40.5429 26.1819C37.6178 26.1819 35.0976 23.7706 35.0976 20.3318C35.0976 16.8582 37.6178 14.4818 40.5429 14.4818ZM61.4367 14.4818C64.3618 14.4818 66.882 16.8582 66.882 20.3318C66.882 23.7662 64.3618 26.1819 61.4367 26.1819C58.5116 26.1819 55.9913 23.7706 55.9913 20.3318C55.9913 16.8582 58.5116 14.4818 61.4367 14.4818ZM82.265 14.4818C85.151 14.4818 87.4187 16.9671 87.4187 20.3667C87.4187 23.7315 85.151 26.1819 82.265 26.1819C79.3399 26.1819 76.8894 23.7315 76.8894 20.3667C76.8894 16.9671 79.3399 14.4818 82.265 14.4818Z" fill="#00856F"/>
</g>
<defs>
<clipPath id="clip0_1773_60">
<rect width="117.371" height="38.636" fill="white"/>
</clipPath>
</defs>
</svg>
