<svg width="171" height="33" viewBox="0 0 171 33" fill="none" xmlns="http://www.w3.org/2000/svg">
<path d="M35.629 9.48389C34.1902 9.48389 33.0039 10.6281 33.0039 12.0709V17.5433V23.0157H35.629V17.5433V12.0709H38.7589H41.8888V9.48389H38.7589H35.629Z" fill="#00856F"/>
<path d="M57.5388 16.2254V12.0464C57.5388 10.6286 56.3777 9.45947 54.9137 9.45947H50.6732H46.4327C44.9939 9.45947 43.8076 10.6037 43.8076 12.0464V16.2254V20.4043C43.8076 21.8222 44.9687 22.9913 46.4327 22.9913H50.6732H54.9137C56.3525 22.9913 57.5388 21.8471 57.5388 20.4043V16.2254ZM54.9137 16.2254V20.4043H50.6732H46.4327V16.2254V12.0464H50.6732H54.9137V16.2254Z" fill="#00856F"/>
<path d="M62.7882 9.48389C61.3494 9.48389 60.1631 10.6281 60.1631 12.0709V16.2498V20.4288C60.1631 21.8466 61.3242 23.0157 62.7882 23.0157L72.0264 22.8913V20.4288H62.7882V16.2498V12.0709H72.0264V9.60826L62.7882 9.48389Z" fill="#00856F"/>
<path d="M87.0729 9.48389H83.5139L78.3143 14.9314H77.2794V9.48389H74.6543V16.2249V22.9908H77.2794V17.5184H78.5919H78.7938L84.1954 22.9908H87.8049L80.8636 15.9264L87.0729 9.48389Z" fill="#00856F"/>
<path d="M90.9825 20.4043V17.5189L102.089 17.3945V14.9319V12.0464C102.089 10.6286 100.928 9.45947 99.4635 9.45947H95.223H90.9825C89.5438 9.45947 88.3574 10.6037 88.3574 12.0464V16.2254V20.4043C88.3574 21.8222 89.5185 22.9913 90.9825 22.9913L102.089 22.8669V20.4043H90.9825ZM90.9825 12.0464H95.223H99.4635V14.9319H96.5356H90.9825V12.0464Z" fill="#00856F"/>
<path d="M108.677 5.5293H107.667L106.052 7.4944V9.4595H104.058V12.0465L106.052 12.0216V20.4044C106.052 21.8222 107.213 22.9913 108.677 22.9913L112.917 22.867V20.4044H108.677V11.9967L113.296 11.9221V9.4595H108.677V5.5293Z" fill="#00856F"/>
<path d="M127.128 17.5189C127.128 16.101 125.967 14.9319 124.503 14.9319H121.196H117.89V12.0464H127.128V9.58385L117.89 9.45947C116.451 9.45947 115.265 10.6037 115.265 12.0464V14.9319C115.265 16.3498 116.426 17.5189 117.89 17.5189H121.196H124.503V20.4043H115.265V22.8669L124.503 22.9913C125.942 22.9913 127.128 21.8471 127.128 20.4043V17.5189Z" fill="#00856F"/>
<path d="M140.833 9.48389H136.592H132.352C130.913 9.48389 129.727 10.6281 129.727 12.0709V16.2498V20.4288C129.727 21.8466 130.888 23.0157 132.352 23.0157L143.458 22.8913V20.4288H132.352V17.5433L143.458 17.4189V14.9563V12.0709C143.458 10.6281 142.297 9.48389 140.833 9.48389ZM140.833 14.9314H132.352V12.046H136.592H140.833V14.9314Z" fill="#00856F"/>
<path d="M157.19 9.48389L146.084 9.60826V12.0709H157.19V14.9563L146.084 15.0807V17.5433V20.4288C146.084 21.8466 147.245 23.0157 148.709 23.0157H152.95H157.19C158.629 23.0157 159.815 21.8715 159.815 20.4288V16.2498V12.0709C159.79 10.6281 158.629 9.48389 157.19 9.48389ZM157.19 20.4039H152.95H148.709V17.5184H157.19V20.4039Z" fill="#00856F"/>
<path d="M166.381 11.9964L171 11.9218V9.45923H166.381V5.50415H165.371L163.756 7.46925V9.43435H161.762V12.0213L163.756 11.9964V20.3792C163.756 21.7971 164.917 22.9662 166.381 22.9662L170.621 22.8418V20.3792H166.381V11.9964Z" fill="#00856F"/>
<path d="M26.0624 0.628484L21.7966 0.0066166C21.6704 -0.0182581 21.5442 0.0314883 21.4937 0.0812377L19.6764 2.41946C19.5502 2.56871 19.5249 2.7677 19.5754 2.94183C19.6259 3.11595 19.4745 3.2652 19.2978 3.24033L17.8085 2.91695C17.5814 2.8672 17.329 2.94183 17.1775 3.14083L11.2711 10.6032C11.1701 10.7525 10.9682 10.8022 10.7915 10.7276L8.54504 9.73262C8.34311 9.63313 8.11594 9.658 7.93925 9.78237L6.8034 10.5535C6.62671 10.6779 6.3743 10.7027 6.17237 10.6032L5.61707 10.3296C5.26369 10.1555 4.83459 10.3545 4.73363 10.7276L4.32977 12.4937C4.2288 12.9166 4.40549 13.3395 4.78411 13.5633L5.64231 14.0857L8.39359 15.7523L9.73137 16.5732C10.11 16.797 10.5896 16.7473 10.9177 16.4737L13.1642 14.5334C13.3409 14.3842 13.6185 14.3344 13.8204 14.4588L14.5019 14.8071C14.7291 14.9314 15.0068 14.8817 15.1835 14.7076L16.3193 13.6628C16.496 13.4887 16.7737 13.4638 16.9756 13.5633L18.6667 14.3344C18.9191 14.4588 19.222 14.3842 19.3987 14.1603L20.1812 13.1653L26.1129 5.67804C26.3905 5.3298 26.2138 4.80743 25.7595 4.70793L24.447 4.40943C24.1693 4.35968 24.0431 4.01144 24.245 3.81244L26.2896 1.3001C26.4915 1.0016 26.3653 0.678233 26.0624 0.628484Z" fill="#00856F"/>
<path d="M6.50044 15.7017C6.37423 15.6271 6.24802 15.7515 6.29851 15.8758L6.92954 17.5176C6.98002 17.642 6.98002 17.7663 6.95477 17.8907L6.39947 20.0299C6.37423 20.1792 6.42471 20.3284 6.52568 20.403L8.11587 21.6219C8.26731 21.7214 8.46924 21.7214 8.59545 21.597L10.2614 20.1543C10.3623 20.0797 10.4885 20.0299 10.5895 20.005L12.4826 19.8061C12.6088 19.7812 12.6593 19.607 12.5331 19.5324L6.50044 15.7017Z" fill="#00856F"/>
<path d="M5.94543 21.2243C5.84446 21.1497 5.69302 21.1248 5.56681 21.1746L4.22903 21.8213C4.15331 21.8462 4.10282 21.9208 4.05234 21.9954L1.2001 28.9355C1.2001 28.9603 1.2001 28.9603 1.2001 28.9852C1.22534 29.0101 1.25058 29.035 1.30106 29.035L1.95733 28.7862C1.98257 28.7862 2.00781 28.7862 2.03305 28.7862C2.05829 28.8111 2.08353 28.8608 2.05829 28.8857L0.0137583 32.1941C-0.0367239 32.2687 0.0642429 32.3433 0.114725 32.2687L7.51038 24.9555C7.5861 24.8809 7.61135 24.8063 7.63659 24.7068L7.78803 22.8163C7.78803 22.6919 7.73755 22.5924 7.66183 22.5178L5.94543 21.2243Z" fill="#00856F"/>
</svg>
